<svg width="60" height="60" viewBox="0 0 60 60" fill="none" xmlns="http://www.w3.org/2000/svg">
<path d="M46.475 14.7249C43.4 13.2999 40.125 12.2499 36.675 11.6499C36.25 12.3999 35.75 13.4249 35.425 14.2499C31.775 13.6999 28.15 13.6999 24.575 14.2499C24.225 13.4249 23.725 12.3999 23.3 11.6499C19.85 12.2499 16.575 13.2999 13.5 14.7249C7.30005 24.0749 5.62505 33.2 6.45005 42.175C10.575 45.25 14.55 47.1 18.475 48.325C19.45 47 20.3 45.575 21.05 44.1C19.625 43.575 18.275 42.9 17 42.125C17.35 41.875 17.675 41.6 18 41.35C25.825 45 34.3 45 42.025 41.35C42.35 41.625 42.675 41.875 43.025 42.125C41.75 42.9 40.375 43.55 38.975 44.1C39.725 45.575 40.575 47 41.55 48.325C45.475 47.1 49.475 45.25 53.575 42.175C54.55 31.75 51.9 22.7249 46.525 14.7249H46.475ZM22.1 36.675C19.75 36.675 17.825 34.5 17.825 31.825C17.825 29.15 19.7 26.975 22.1 26.975C24.5 26.975 26.4 29.15 26.375 31.825C26.375 34.475 24.5 36.675 22.1 36.675ZM37.875 36.675C35.525 36.675 33.6 34.5 33.6 31.825C33.6 29.15 35.475 26.975 37.875 26.975C40.275 26.975 42.175 29.15 42.15 31.825C42.15 34.475 40.275 36.675 37.875 36.675Z" fill="#252B42"/>
</svg>
