<svg width="50" height="40" viewBox="0 0 50 40" fill="none" xmlns="http://www.w3.org/2000/svg">
    <path
        d="M43.0583 0H6.9417C3.10811 0 0 3.3845 0 7.559V32.441C0 36.6155 3.10811 40 6.9417 40H43.0583C46.8918 40 50 36.6155 50 32.441V7.559C50 3.3845 46.8918 0 43.0583 0ZM17.399 26.9887L7.67832 36.0191C6.99268 36.6563 5.96191 36.5678 5.37686 35.8204C4.7917 35.0738 4.87305 33.9513 5.55947 33.3143L15.2802 24.2838C15.9657 23.6466 16.9964 23.7352 17.5815 24.4827C18.1667 25.2292 18.0854 26.3516 17.399 26.9887ZM25 23.5556C23.6998 23.5521 22.4395 23.0816 21.4541 22.1537L21.4549 22.1546L21.4518 22.152C21.4525 22.1529 21.4534 22.1529 21.4541 22.1537L6.53926 8.05732C5.85762 7.41311 5.78506 6.29079 6.37578 5.54949C6.96729 4.80723 7.99805 4.72822 8.67871 5.37147L23.5978 19.4714C23.9166 19.7804 24.442 20.0035 25 20C25.5572 20.0018 26.0737 19.7848 26.4102 19.4653L26.4174 19.4584L41.3212 5.37158C42.002 4.72833 43.0327 4.80734 43.6242 5.54959C44.2148 6.29079 44.1424 7.41321 43.4607 8.05742L28.5418 22.1581C27.5597 23.0763 26.301 23.5538 25 23.5556ZM44.6238 35.8204C44.0387 36.5678 43.0079 36.6563 42.3225 36.0191L32.6018 26.9887C31.9154 26.3515 31.8341 25.2292 32.4192 24.4827C33.0043 23.7352 34.0351 23.6467 34.7206 24.2838L44.4413 33.3143C45.1276 33.9513 45.209 35.0738 44.6238 35.8204Z"
        fill="currentColor" />
</svg>