<svg width="46" height="42" viewBox="0 0 46 42" fill="none" xmlns="http://www.w3.org/2000/svg">
    <path
        d="M36.0122 0.000172713C35.5747 -0.00373329 35.1841 0.273611 35.0474 0.691579L30.0747 16.0002H15.9263L10.9536 0.691579C10.8208 0.289236 10.4497 0.0118917 10.024 0.000172713C9.59818 -0.00763929 9.21537 0.250173 9.06302 0.648611L3.07084 16.6408C3.06693 16.6408 3.06693 16.6447 3.06302 16.6486L0.0630229 24.6486C-0.0932271 25.0705 0.0473979 25.5431 0.414586 25.8088L22.4068 41.801L22.4107 41.8088C22.4146 41.8088 22.4146 41.8088 22.4146 41.8127C22.4263 41.8205 22.4419 41.8283 22.4536 41.8361C22.4693 41.8439 22.481 41.8556 22.4966 41.8635C22.5005 41.8635 22.5005 41.8674 22.5044 41.8674C22.5044 41.8674 22.5083 41.8713 22.5122 41.8713C22.5161 41.8752 22.5201 41.8791 22.5279 41.8791C22.5318 41.883 22.5396 41.8869 22.5435 41.8908C22.563 41.8986 22.5865 41.9103 22.6099 41.9181C22.6099 41.9181 22.6099 41.9181 22.6099 41.922C22.6333 41.9299 22.6568 41.9377 22.6763 41.9455C22.6802 41.9455 22.6802 41.9455 22.6841 41.9494C22.6997 41.9533 22.7154 41.9572 22.7349 41.965C22.7427 41.965 22.7505 41.9689 22.7622 41.9689C22.7622 41.9728 22.7622 41.9728 22.7622 41.9689C22.7818 41.9767 22.8013 41.9806 22.8208 41.9845C22.8482 41.9885 22.8716 41.9924 22.899 41.9963C22.938 41.9963 22.981 42.0002 23.0201 42.0002C23.0591 41.9963 23.0943 41.9963 23.1294 41.9885C23.1451 41.9885 23.1568 41.9885 23.1724 41.9845C23.1724 41.9845 23.1763 41.9845 23.1802 41.9845C23.188 41.9806 23.1919 41.9806 23.1997 41.9806C23.2036 41.9806 23.2076 41.9767 23.2154 41.9767C23.2232 41.9728 23.2349 41.9728 23.2427 41.9689C23.2583 41.965 23.2701 41.9611 23.2818 41.9572C23.2896 41.9572 23.2935 41.9572 23.2974 41.9533C23.3013 41.9533 23.3052 41.9533 23.3091 41.9533C23.3247 41.9455 23.3443 41.9377 23.3599 41.9338C23.3794 41.926 23.3951 41.9181 23.4107 41.9103C23.4146 41.9103 23.4146 41.9103 23.4185 41.9064C23.4224 41.9064 23.4263 41.9064 23.4302 41.9025C23.438 41.8986 23.4458 41.8947 23.4536 41.8908C23.4771 41.8791 23.4966 41.8674 23.5161 41.8556C23.524 41.8517 23.5279 41.8478 23.5318 41.8439C23.5357 41.8439 23.5396 41.84 23.5435 41.84C23.5591 41.8283 23.5747 41.8205 23.5904 41.8088L23.5982 41.797L45.5904 25.8088C45.9536 25.5431 46.0943 25.0705 45.938 24.6486L42.9458 16.676C42.9419 16.6681 42.938 16.6564 42.938 16.6486L36.938 0.648611C36.7896 0.261892 36.4263 0.00407871 36.0122 0.000172713ZM6.06693 18.0002H14.4732L20.3286 36.0158L6.06693 18.0002ZM31.5279 18.0002H39.9341L25.6724 36.0158L31.5279 18.0002ZM4.31302 19.008L17.688 35.9025L2.20365 24.6408L4.31302 19.008ZM41.688 19.008L43.7974 24.6408L28.313 35.9025L41.688 19.008Z"
        fill="currentColor" />
</svg>