<svg width="33" height="33" viewBox="0 0 33 33" fill="none" xmlns="http://www.w3.org/2000/svg">
<g filter="url(#filter0_d_65_13)">
<path d="M16.5 25C9.625 25 4 19.375 4 12.5C4 5.625 9.625 0 16.5 0C23.375 0 29 5.625 29 12.5C29 19.375 23.375 25 16.5 25ZM13.8958 17.7083C14.5208 20.9375 15.6667 22.9167 16.5 22.9167C17.3333 22.9167 18.4792 20.9375 19.1042 17.7083H13.8958ZM21.2917 17.7083C20.9792 19.4792 20.4583 21.1458 19.8333 22.3958C22.2292 21.5625 24.3125 19.8958 25.5625 17.7083H21.2917ZM7.4375 17.7083C8.6875 19.8958 10.7708 21.5625 13.1667 22.3958C12.5417 21.1458 12.0208 19.4792 11.7083 17.7083H7.4375ZM21.6042 15.625H26.5C26.7083 14.6875 26.9167 13.5417 26.9167 12.5C26.9167 11.4583 26.7083 10.3125 26.3958 9.375H21.5C21.7083 10.4167 21.7083 11.4583 21.7083 12.5C21.7083 13.5417 21.7083 14.5833 21.6042 15.625ZM13.5833 15.625H19.5208C19.625 14.6875 19.7292 13.6458 19.7292 12.5C19.7292 11.3542 19.625 10.3125 19.5208 9.375H13.5833C13.4792 10.3125 13.375 11.3542 13.375 12.5C13.375 13.6458 13.4792 14.6875 13.5833 15.625ZM6.60417 15.625H11.5C11.3958 14.5833 11.3958 13.5417 11.3958 12.5C11.3958 11.4583 11.3958 10.4167 11.5 9.375H6.60417C6.29167 10.3125 6.08333 11.4583 6.08333 12.5C6.08333 13.5417 6.29167 14.6875 6.60417 15.625ZM21.2917 7.29167H25.5625C24.3125 5.10417 22.2292 3.4375 19.8333 2.60417C20.4583 3.85417 20.9792 5.52083 21.2917 7.29167ZM13.8958 7.29167H19.2083C18.5833 4.0625 17.4375 2.08333 16.6042 2.08333C15.7708 2.08333 14.5208 4.0625 13.8958 7.29167ZM7.4375 7.29167H11.7083C12.0208 5.52083 12.5417 3.85417 13.1667 2.60417C10.7708 3.4375 8.79167 5.10417 7.4375 7.29167Z" fill="black"/>
<path d="M13.8958 17.2083H13.2898L13.4049 17.8033C13.7237 19.4504 14.1793 20.8017 14.6765 21.7547C14.9243 22.2296 15.1924 22.6251 15.4747 22.9093C15.7465 23.183 16.0955 23.4167 16.5 23.4167C16.9045 23.4167 17.2535 23.183 17.5253 22.9093C17.8076 22.6251 18.0757 22.2296 18.3235 21.7547C18.8207 20.8017 19.2763 19.4504 19.5951 17.8033L19.7102 17.2083H19.1042H13.8958ZM21.2917 17.2083H20.8722L20.7993 17.6214C20.493 19.3569 19.9847 20.9751 19.3861 22.1722L18.8362 23.272L19.9976 22.8681C22.5004 21.9975 24.6831 20.2551 25.9966 17.9564L26.4241 17.2083H25.5625H21.2917ZM7.4375 17.2083H6.57591L7.00338 17.9564C8.31692 20.2551 10.4996 21.9975 13.0024 22.8681L14.1638 23.272L13.6139 22.1722C13.0153 20.9751 12.507 19.3569 12.2007 17.6214L12.1278 17.2083H11.7083H7.4375ZM21.1066 15.5752L21.0517 16.125H21.6042H26.5H26.9011L26.9881 15.7335C27.1982 14.7878 27.4167 13.5983 27.4167 12.5C27.4167 11.3992 27.1979 10.2 26.8702 9.21689L26.7562 8.875H26.3958H21.5H20.8901L21.0097 9.47306C21.2068 10.4583 21.2083 11.4506 21.2083 12.5C21.2083 13.5458 21.2079 14.5625 21.1066 15.5752ZM13.0864 15.6802L13.1358 16.125H13.5833H19.5208H19.9684L20.0178 15.6802C20.1223 14.7396 20.2292 13.675 20.2292 12.5C20.2292 11.325 20.1223 10.2604 20.0178 9.31978L19.9684 8.875H19.5208H13.5833H13.1358L13.0864 9.31978C12.9819 10.2604 12.875 11.325 12.875 12.5C12.875 13.675 12.9819 14.7396 13.0864 15.6802ZM6.12982 15.7831L6.24379 16.125H6.60417H11.5H12.0525L11.9975 15.5752C11.8962 14.5625 11.8958 13.5458 11.8958 12.5C11.8958 11.4542 11.8962 10.4375 11.9975 9.42475L12.0525 8.875H11.5H6.60417H6.24379L6.12982 9.21689C5.80213 10.2 5.58333 11.3992 5.58333 12.5C5.58333 13.6008 5.80213 14.8 6.12982 15.7831ZM20.7993 7.37856L20.8722 7.79167H21.2917H25.5625H26.4241L25.9966 7.0436C24.6831 4.7449 22.5004 3.00247 19.9976 2.13192L18.8362 1.72796L19.3861 2.82777C19.9847 4.02486 20.493 5.64315 20.7993 7.37856ZM13.4049 7.19666L13.2898 7.79167H13.8958H19.2083H19.8144L19.6992 7.19666C19.3804 5.5496 18.9249 4.19833 18.4277 3.24528C18.1799 2.77039 17.9117 2.37488 17.6295 2.09071C17.3577 1.81697 17.0087 1.58333 16.6042 1.58333C16.2038 1.58333 15.8498 1.81287 15.5698 2.08354C15.278 2.36565 14.9959 2.75961 14.7339 3.23536C14.2082 4.18986 13.7248 5.544 13.4049 7.19666ZM7.01237 7.02849L6.53992 7.79167H7.4375H11.7083H12.1278L12.2007 7.37856C12.507 5.64315 13.0153 4.02486 13.6139 2.82777L14.1638 1.72796L13.0024 2.13192C10.4892 3.00609 8.42169 4.75188 7.01237 7.02849ZM16.5 24.5C9.90114 24.5 4.5 19.0989 4.5 12.5C4.5 5.90114 9.90114 0.5 16.5 0.5C23.0989 0.5 28.5 5.90114 28.5 12.5C28.5 19.0989 23.0989 24.5 16.5 24.5Z" stroke="black"/>
</g>
<defs>
<filter id="filter0_d_65_13" x="0" y="0" width="33" height="33" filterUnits="userSpaceOnUse" color-interpolation-filters="sRGB">
<feFlood flood-opacity="0" result="BackgroundImageFix"/>
<feColorMatrix in="SourceAlpha" type="matrix" values="0 0 0 0 0 0 0 0 0 0 0 0 0 0 0 0 0 0 127 0" result="hardAlpha"/>
<feOffset dy="4"/>
<feGaussianBlur stdDeviation="2"/>
<feComposite in2="hardAlpha" operator="out"/>
<feColorMatrix type="matrix" values="0 0 0 0 0 0 0 0 0 0 0 0 0 0 0 0 0 0 0.25 0"/>
<feBlend mode="normal" in2="BackgroundImageFix" result="effect1_dropShadow_65_13"/>
<feBlend mode="normal" in="SourceGraphic" in2="effect1_dropShadow_65_13" result="shape"/>
</filter>
</defs>
</svg>
