<svg width="48" height="42" viewBox="0 0 48 42" fill="none" xmlns="http://www.w3.org/2000/svg">
<path d="M42.2857 0H5.71429C2.56 0 0 2.24 0 5V37C0 39.76 2.56 42 5.71429 42H42.2857C45.44 42 48 39.76 48 37V5C48 2.24 45.44 0 42.2857 0ZM14.8571 16V35H8V16H14.8571ZM8 10.47C8 9.07 9.37143 8 11.4286 8C13.4857 8 14.7771 9.07 14.8571 10.47C14.8571 11.87 13.5771 13 11.4286 13C9.37143 13 8 11.87 8 10.47ZM40 35H33.1429C33.1429 35 33.1429 25.74 33.1429 25C33.1429 23 32 21 29.1429 20.96H29.0514C26.2857 20.96 25.1429 23.02 25.1429 25C25.1429 25.91 25.1429 35 25.1429 35H18.2857V16H25.1429V18.56C25.1429 18.56 27.3486 16 31.7829 16C36.32 16 40 18.73 40 24.26V35Z" fill="#252B42"/>
</svg>
