<svg width="60" height="60" viewBox="0 0 60 60" fill="none" xmlns="http://www.w3.org/2000/svg">
<g clip-path="url(#clip0_38_1149)">
<path d="M46.2825 17.01L46.845 16.1588L47.8275 16.755L48.2625 17.0663C49.3125 17.8763 51.5212 19.9463 51.9975 23.3813C52.8337 23.2313 53.6775 23.1563 54.5212 23.1563C56.5237 23.1563 57.87 23.6213 58.635 24.0075L59.0287 24.2213L59.2837 24.39L60 24.975L59.7525 25.725C59.3678 26.7532 58.7667 27.6867 57.99 28.4625C56.9025 29.5837 54.99 30.9075 51.9562 31.08L51.2887 31.0988H50.7337C49.3462 34.7625 47.4825 38.8913 44.3512 42.5963C42.4933 44.7979 40.2895 46.6825 37.8262 48.1763C34.8731 49.9283 31.6392 51.1564 28.2675 51.8062C25.8525 52.275 23.4 52.5075 20.9437 52.5C15.5062 52.5 10.7062 51.42 7.75498 49.53C5.11873 47.8463 3.09373 45.0975 1.73248 41.3662C0.541199 37.9568 -0.0438857 34.365 0.00372619 30.7537C-0.00244385 30.2907 0.157629 29.8409 0.454878 29.4858C0.752128 29.1308 1.16684 28.8941 1.62373 28.8188L1.87873 28.8H41.4037L41.7487 28.7738L42.3075 28.7138C43.2675 28.5863 44.73 28.3013 45.7575 27.7013C44.5275 25.665 44.1787 23.2837 44.7525 20.7487C44.9928 19.6913 45.371 18.6701 45.8775 17.7113L46.2825 17.01ZM10.8375 21.69L10.9875 21.7162C11.056 21.7419 11.1177 21.783 11.1678 21.8363C11.2178 21.8896 11.2549 21.9538 11.2762 22.0238L11.2987 22.1737V27.105L11.2762 27.2588C11.2546 27.3291 11.2169 27.3935 11.1661 27.4469C11.1154 27.5002 11.0529 27.5411 10.9837 27.5662L10.8375 27.5887H5.54248C5.44379 27.5874 5.34808 27.5547 5.2692 27.4954C5.19033 27.4361 5.13237 27.3532 5.10373 27.2588L5.07748 27.1087V22.17L5.10373 22.02C5.12488 21.9489 5.16235 21.8838 5.21313 21.8297C5.26391 21.7757 5.32661 21.7343 5.39623 21.7087L5.54248 21.6862L10.8375 21.69ZM18.1387 21.69L18.285 21.7162C18.3542 21.7414 18.4166 21.7823 18.4674 21.8356C18.5181 21.889 18.5558 21.9534 18.5775 22.0238L18.6 22.1737V27.105L18.5737 27.2588C18.5521 27.3291 18.5144 27.3935 18.4636 27.4469C18.4129 27.5002 18.3504 27.5411 18.2812 27.5662L18.135 27.5887H12.84C12.7414 27.5869 12.646 27.5539 12.5672 27.4947C12.4885 27.4355 12.4304 27.3529 12.4012 27.2588L12.375 27.1125V22.1737C12.3742 22.0734 12.4044 21.9753 12.4614 21.8927C12.5185 21.8102 12.5996 21.7472 12.6937 21.7125L12.84 21.6862L18.1387 21.69ZM25.5487 21.69L25.695 21.7162C25.7635 21.7419 25.8252 21.783 25.8753 21.8363C25.9253 21.8896 25.9624 21.9538 25.9837 22.0238L26.01 22.1737V27.105L25.9837 27.2588C25.9621 27.3291 25.9244 27.3935 25.8736 27.4469C25.8229 27.5002 25.7604 27.5411 25.6912 27.5662L25.545 27.5887H20.25C20.1513 27.5874 20.0556 27.5547 19.9767 27.4954C19.8978 27.4361 19.8399 27.3532 19.8112 27.2588L19.7887 27.1087V22.17L19.8112 22.02C19.8324 21.9489 19.8698 21.8838 19.9206 21.8297C19.9714 21.7757 20.0341 21.7343 20.1037 21.7087L20.25 21.6862L25.5487 21.69ZM32.8687 21.69L33.015 21.7162C33.0842 21.7414 33.1466 21.7823 33.1974 21.8356C33.2481 21.889 33.2858 21.9534 33.3075 22.0238L33.3337 22.1737V27.105C33.3345 27.2053 33.3043 27.3035 33.2473 27.386C33.1902 27.4686 33.1091 27.5315 33.015 27.5662L32.865 27.5887H27.5737C27.475 27.5874 27.3793 27.5547 27.3005 27.4954C27.2216 27.4361 27.1636 27.3532 27.135 27.2588L27.1125 27.1087V22.17L27.135 22.02C27.1561 21.9489 27.1936 21.8838 27.2444 21.8297C27.2952 21.7757 27.3579 21.7343 27.4275 21.7087L27.5775 21.6862H32.8725L32.8687 21.69ZM40.2562 21.69L40.4025 21.7162C40.4717 21.7414 40.5341 21.7823 40.5849 21.8356C40.6356 21.889 40.6733 21.9534 40.695 22.0238L40.7175 22.1737V27.105C40.7183 27.2053 40.6881 27.3035 40.631 27.386C40.574 27.4686 40.4929 27.5315 40.3987 27.5662L40.2525 27.5887H34.9575C34.8588 27.5874 34.7631 27.5547 34.6842 27.4954C34.6053 27.4361 34.5474 27.3532 34.5187 27.2588L34.4962 27.1087V22.17L34.5187 22.02C34.5399 21.9489 34.5773 21.8838 34.6281 21.8297C34.6789 21.7757 34.7416 21.7343 34.8112 21.7087L34.9612 21.6862H40.2525L40.2562 21.69ZM18.1312 14.595L18.2812 14.6212C18.3493 14.6465 18.4108 14.687 18.4608 14.7397C18.5109 14.7923 18.5482 14.8557 18.57 14.925L18.5962 15.0787V20.01C18.597 20.1103 18.5668 20.2085 18.5098 20.291C18.4527 20.3736 18.3716 20.4365 18.2775 20.4713L18.1312 20.4975H12.84C12.7405 20.4951 12.6443 20.4611 12.5655 20.4004C12.4866 20.3398 12.4291 20.2555 12.4012 20.16L12.375 20.01V15.0787C12.3749 14.979 12.4055 14.8817 12.4625 14.7999C12.5195 14.7181 12.6002 14.6558 12.6937 14.6212L12.84 14.595H18.1312ZM25.5412 14.595L25.6912 14.6212C25.7593 14.6465 25.8208 14.687 25.8708 14.7397C25.9209 14.7923 25.9582 14.8557 25.98 14.925L26.0062 15.0787V20.01C26.007 20.1103 25.9768 20.2085 25.9198 20.291C25.8627 20.3736 25.7816 20.4365 25.6875 20.4713L25.5412 20.4975H20.25C20.1505 20.4951 20.0543 20.4611 19.9755 20.4004C19.8966 20.3398 19.8391 20.2555 19.8112 20.16L19.7887 20.01V15.0787L19.8112 14.9288C19.8329 14.8584 19.8706 14.794 19.9213 14.7406C19.9721 14.6873 20.0345 14.6464 20.1037 14.6212L20.25 14.595H25.5412ZM32.865 14.595C33.0675 14.595 33.24 14.7337 33.3037 14.925L33.33 15.0787V20.01C33.3308 20.1103 33.3006 20.2085 33.2435 20.291C33.1865 20.3736 33.1054 20.4365 33.0112 20.4713L32.8612 20.4975H27.5737C27.4742 20.4951 27.3781 20.4611 27.2992 20.4004C27.2203 20.3398 27.1628 20.2555 27.135 20.16L27.1125 20.01V15.0787L27.135 14.9288C27.1566 14.8584 27.1943 14.794 27.2451 14.7406C27.2958 14.6873 27.3583 14.6464 27.4275 14.6212L27.5775 14.595H32.8725H32.865ZM32.865 7.5C33.0675 7.5 33.24 7.63875 33.3037 7.83L33.33 7.98V12.915C33.3308 13.0153 33.3006 13.1135 33.2435 13.196C33.1865 13.2786 33.1054 13.3415 33.0112 13.3762L32.8612 13.3987H27.5737C27.475 13.3974 27.3793 13.3647 27.3005 13.3054C27.2216 13.2461 27.1636 13.1632 27.135 13.0687L27.1125 12.9187V7.98L27.135 7.83C27.1566 7.75962 27.1943 7.69522 27.2451 7.64187C27.2958 7.58851 27.3583 7.54765 27.4275 7.5225L27.5737 7.5H32.8687H32.865Z" fill="#2396ED"/>
</g>
<defs>
<clipPath id="clip0_38_1149">
<rect width="60" height="60" fill="white"/>
</clipPath>
</defs>
</svg>
