<svg width="60" height="54" viewBox="0 0 60 54" fill="none" xmlns="http://www.w3.org/2000/svg">
<path d="M28.4318 19.8453C28.9224 19.122 29.4596 19.0301 29.8953 19.0301C30.3311 19.0301 31.057 19.122 31.5478 19.8453C35.4155 25.1577 41.7997 35.7403 46.5091 43.5466C49.5803 48.6374 51.9391 52.5473 52.423 53.0449C54.2397 54.9129 56.7313 53.7487 58.1791 51.6299C59.6044 49.544 60 48.0793 60 46.5167C60 45.4524 39.3504 7.04799 37.2708 3.8513C35.2709 0.776624 34.6195 0 31.1966 0H28.6351C25.2224 0 24.7292 0.776624 22.7291 3.8513C20.6497 7.04799 0 45.4524 0 46.5167C0 48.0793 0.395691 49.544 1.82105 51.6299C3.26883 53.7487 5.76035 54.9129 7.577 53.0449C8.061 52.5473 10.4198 48.6374 13.491 43.5466C18.2003 35.7403 24.5641 25.1577 28.4318 19.8453Z" fill="#000020"/>
</svg>
