<svg width="60" height="60" viewBox="0 0 60 60" fill="none" xmlns="http://www.w3.org/2000/svg">
<path opacity="0.6" d="M29.1667 5H20.8333C16.231 5 12.5 8.73095 12.5 13.3333C12.5 17.9357 16.231 21.6667 20.8333 21.6667H29.1667V5Z" fill="#1C274C"/>
<path opacity="0.4" d="M29.1667 21.6663H20.8333C16.231 21.6663 12.5 25.3973 12.5 29.9995C12.5 34.602 16.231 38.333 20.8333 38.333H29.1667V21.6663Z" fill="#1C274C"/>
<path d="M45.8318 29.9995C45.8318 34.602 42.1008 38.333 37.4983 38.333C32.896 38.333 29.165 34.602 29.165 29.9995C29.165 25.3973 32.896 21.6663 37.4983 21.6663C42.1008 21.6663 45.8318 25.3973 45.8318 29.9995Z" fill="#1C274C"/>
<path opacity="0.2" d="M20.8333 38.3337H29.1667V46.667C29.1667 51.2695 25.4357 55.0005 20.8333 55.0005C16.231 55.0005 12.5 51.2695 12.5 46.667C12.5 42.0647 16.231 38.3337 20.8333 38.3337Z" fill="#1C274C"/>
<path opacity="0.8" d="M29.165 5H37.4983C42.1008 5 45.8318 8.73095 45.8318 13.3333C45.8318 17.9357 42.1008 21.6667 37.4983 21.6667H29.165V5Z" fill="#1C274C"/>
</svg>
