<svg width="60" height="60" viewBox="0 0 60 60" fill="none" xmlns="http://www.w3.org/2000/svg">
<path d="M21.75 11.15L27.0875 16.4875" stroke="black" stroke-width="5" stroke-linecap="round" stroke-linejoin="round"/>
<path d="M32.9125 22.3125L37.6875 27.0875" stroke="black" stroke-width="5" stroke-linecap="round" stroke-linejoin="round"/>
<path d="M5.26252 27.6501C4.69363 28.3032 4.38025 29.1402 4.38025 30.0063C4.38025 30.8725 4.69363 31.7094 5.26252 32.3626L27.65 54.7501C28.3032 55.319 29.1401 55.6324 30.0063 55.6324C30.8724 55.6324 31.7094 55.319 32.3625 54.7501L54.7375 32.3626C55.3114 31.7118 55.628 30.874 55.628 30.0063C55.628 29.1387 55.3114 28.3008 54.7375 27.6501L32.3625 5.26258C31.7189 4.67462 30.8714 4.36074 30 4.38758C29.1308 4.36475 28.2872 4.68334 27.65 5.27508L5.26252 27.6501Z" stroke="black" stroke-width="5" stroke-linecap="round" stroke-linejoin="round"/>
<path d="M30 44.6374C32.2782 44.6374 34.125 42.7906 34.125 40.5125C34.125 38.2343 32.2782 36.3875 30 36.3875C27.7218 36.3875 25.875 38.2343 25.875 40.5125C25.875 42.7906 27.7218 44.6374 30 44.6374Z" stroke="black" stroke-width="5" stroke-linecap="round" stroke-linejoin="round"/>
<path d="M30 23.525C32.2782 23.525 34.125 21.6782 34.125 19.4C34.125 17.1219 32.2782 15.275 30 15.275C27.7218 15.275 25.875 17.1219 25.875 19.4C25.875 21.6782 27.7218 23.525 30 23.525Z" stroke="black" stroke-width="5" stroke-linecap="round" stroke-linejoin="round"/>
<path d="M30 36.3875V23.525" stroke="black" stroke-width="5" stroke-linecap="round" stroke-linejoin="round"/>
<path d="M40.6 34.125C42.8781 34.125 44.725 32.2782 44.725 30C44.725 27.7218 42.8781 25.875 40.6 25.875C38.3218 25.875 36.475 27.7218 36.475 30C36.475 32.2782 38.3218 34.125 40.6 34.125Z" stroke="black" stroke-width="5" stroke-linecap="round" stroke-linejoin="round"/>
</svg>
