<svg width="60" height="60" viewBox="0 0 60 60" fill="none" xmlns="http://www.w3.org/2000/svg">
<path d="M50.7919 29.5988C50.7919 28.3029 50.2771 27.06 49.3607 26.1437C48.4444 25.2273 47.2015 24.7125 45.9056 24.7125C45.7312 24.7125 45.5606 24.7219 45.3919 24.7388L52.1044 4.9444H23.5819L30.2831 24.7219C30.1856 24.7219 30.0862 24.7125 29.9869 24.7125C28.8215 24.7136 27.6949 25.131 26.8101 25.8895C25.9253 26.648 25.3406 27.6976 25.1615 28.8491C24.9823 30.0006 25.2204 31.1783 25.8329 32.1697C26.4454 33.1611 27.3919 33.9011 28.5019 34.2563C27.4626 36.046 26.1684 37.675 24.66 39.0919C22.6969 40.9683 20.365 42.4158 17.8125 43.3425C16.3822 42.6642 15.2636 41.467 14.6838 39.994C14.104 38.521 14.1064 36.8825 14.6906 35.4113C14.835 35.0738 14.9812 34.7325 15.1219 34.3913C16.2119 34.1348 17.1808 33.5119 17.8668 32.6269C18.5527 31.7418 18.9142 30.6481 18.8906 29.5286C18.8671 28.409 18.4601 27.3315 17.7375 26.476C17.015 25.6205 16.0207 25.039 14.9209 24.8285C13.8211 24.618 12.6824 24.7913 11.695 25.3195C10.7076 25.8478 9.93148 26.6989 9.49623 27.7306C9.06098 28.7623 8.99302 29.9122 9.30369 30.988C9.61437 32.0638 10.2849 33.0004 11.2031 33.6413C9.64225 36.4694 8.45185 39.4867 7.66124 42.6188C6.99749 46.6219 7.66124 50.8688 11.1206 53.2706C19.1831 58.86 27.9375 49.8056 37.1662 47.5313C40.5112 46.7063 44.1825 46.8394 47.1281 45.1313C48.1929 44.5259 49.1111 43.6931 49.8173 42.6923C50.5234 41.6916 51.0003 40.5474 51.2137 39.3413C51.4095 38.1926 51.3724 37.0163 51.1048 35.8822C50.8371 34.7481 50.3443 33.6794 49.6556 32.7394C50.3907 31.8609 50.793 30.7517 50.7919 29.6063V29.5988ZM34.875 29.625V29.6081C34.8755 28.7675 34.659 27.9409 34.2464 27.2084C33.8338 26.4759 33.2392 25.8622 32.52 25.4269L37.8525 14.625L43.1962 25.5263C42.5258 25.9718 41.9762 26.5763 41.5963 27.2859C41.2165 27.9956 41.0183 28.7882 41.0194 29.5931C41.0194 29.6288 41.0194 29.6644 41.0194 29.7L34.875 29.625Z" fill="#99425B"/>
<path d="M51.9862 29.5988C51.984 28.1821 51.4879 26.8105 50.5834 25.7201C49.6789 24.6298 48.4225 23.8889 47.0306 23.625L53.7694 3.75H21.9169L28.6669 23.6644C27.4879 23.9269 26.4139 24.5348 25.5818 25.4103C24.7498 26.2858 24.1974 27.3894 23.9952 28.5802C23.7931 29.771 23.9502 30.995 24.4466 32.0962C24.9431 33.1973 25.7563 34.1255 26.7825 34.7625C25.9347 36.0223 24.9486 37.1833 23.8425 38.2238C22.1303 39.8613 20.1186 41.1536 17.9175 42.03C16.8843 41.43 16.1011 40.4786 15.7108 39.3493C15.3205 38.22 15.349 36.9881 15.7912 35.8781L15.8662 35.7038L16.005 35.3756C17.2541 34.9423 18.328 34.1138 19.0641 33.0155C19.8001 31.9172 20.1583 30.609 20.0844 29.289C20.0105 27.9689 19.5084 26.7089 18.6543 25.6997C17.8002 24.6905 16.6405 23.987 15.3508 23.6959C14.0612 23.4048 12.7117 23.5418 11.5069 24.0862C10.3021 24.6306 9.3074 25.5527 8.67353 26.713C8.03967 27.8733 7.80112 29.2085 7.994 30.5165C8.18688 31.8244 8.80068 33.034 9.74248 33.9619C9.53998 34.395 9.32623 34.8337 9.10685 35.2856C7.89169 37.5211 7.00748 39.9211 6.48185 42.4106C5.60998 47.6606 7.01623 51.8662 10.44 54.2381C12.2805 55.5543 14.4885 56.2582 16.7512 56.25C20.7487 56.25 24.7931 54.2419 28.7512 52.2769C31.5166 50.7731 34.4343 49.5681 37.455 48.6825C38.5693 48.4269 39.6957 48.2273 40.83 48.0844C43.2321 47.8925 45.5745 47.238 47.7281 46.1569C48.9432 45.4631 49.9908 44.5105 50.7966 43.3667C51.6025 42.2229 52.1469 40.9158 52.3912 39.5381C52.7902 37.1979 52.3308 34.7923 51.0975 32.7638C51.681 31.8113 51.9874 30.7158 51.9862 29.5988ZM49.5994 29.5988C49.5994 30.3293 49.3827 31.0435 48.9768 31.6509C48.571 32.2583 47.9941 32.7318 47.3191 33.0113C46.6442 33.2909 45.9015 33.364 45.185 33.2215C44.4685 33.079 43.8103 32.7272 43.2937 32.2106C42.7771 31.694 42.4254 31.0359 42.2828 30.3194C42.1403 29.6028 42.2135 28.8602 42.493 28.1852C42.7726 27.5103 43.246 26.9334 43.8535 26.5275C44.4609 26.1216 45.175 25.905 45.9056 25.905C46.8848 25.9065 47.8234 26.2961 48.5158 26.9885C49.2082 27.6809 49.5979 28.6196 49.5994 29.5988ZM50.4375 6.13687L44.4862 23.6869C44.2315 23.7489 43.981 23.8272 43.7362 23.9213L37.8581 11.9212L31.9612 23.85C31.7044 23.7615 31.4419 23.69 31.1756 23.6362L25.245 6.13687H50.4375ZM29.9869 25.905C30.7174 25.905 31.4316 26.1216 32.039 26.5275C32.6464 26.9334 33.1199 27.5103 33.3994 28.1852C33.679 28.8602 33.7522 29.6028 33.6096 30.3194C33.4671 31.0359 33.1153 31.694 32.5987 32.2106C32.0821 32.7272 31.424 33.079 30.7075 33.2215C29.991 33.364 29.2483 33.2909 28.5733 33.0113C27.8984 32.7318 27.3215 32.2583 26.9156 31.6509C26.5097 31.0435 26.2931 30.3293 26.2931 29.5988C26.2941 28.6194 26.6836 27.6805 27.3761 26.988C28.0686 26.2955 29.0075 25.906 29.9869 25.905ZM14.0062 25.9406C14.7368 25.9406 15.4509 26.1573 16.0584 26.5631C16.6658 26.969 17.1392 27.5459 17.4188 28.2208C17.6984 28.8958 17.7715 29.6385 17.629 30.355C17.4865 31.0715 17.1347 31.7297 16.6181 32.2463C16.1015 32.7628 15.4434 33.1146 14.7268 33.2571C14.0103 33.3997 13.2676 33.3265 12.5927 33.047C11.9177 32.7674 11.3409 32.2939 10.935 31.6865C10.5291 31.0791 10.3125 30.3649 10.3125 29.6344C10.3135 28.6554 10.7027 27.7167 11.3948 27.0243C12.0869 26.3318 13.0272 25.9421 14.0062 25.9406ZM50.0381 39.1294C49.853 40.163 49.4428 41.1433 48.8365 42.0007C48.2303 42.8581 47.4428 43.5716 46.53 44.0906C44.6368 45.0115 42.5862 45.5651 40.4869 45.7219C39.3019 45.8925 38.0775 46.0688 36.8794 46.365C33.69 47.2889 30.6096 48.5543 27.6919 50.1394C21.7594 53.085 16.6294 55.6294 11.8069 52.2825C8.26873 49.83 8.43185 45.2925 8.84435 42.8063C9.32906 40.5426 10.1394 38.3612 11.25 36.33C11.4225 35.9737 11.5912 35.6269 11.7562 35.2819C12.2601 35.4825 12.7885 35.6149 13.3275 35.6756C12.8495 37.3612 12.9825 39.1614 13.7029 40.7585C14.4234 42.3555 15.685 43.6466 17.265 44.4037L17.7244 44.64L18.21 44.4656C20.9196 43.4885 23.3951 41.9557 25.4775 39.9656C26.8525 38.6708 28.0606 37.2095 29.0737 35.6156C30.3696 35.8127 31.6944 35.5856 32.8506 34.968C34.0068 34.3504 34.9323 33.3756 35.489 32.189C36.0457 31.0023 36.2039 29.6675 35.9398 28.3836C35.6757 27.0997 35.0036 25.9356 34.0237 25.065L37.845 17.3381L41.7056 25.2131C40.6072 26.2717 39.9472 27.7049 39.8569 29.2277C39.7666 30.7505 40.2525 32.2516 41.2181 33.4327C42.1837 34.6137 43.5583 35.3882 45.0687 35.6023C46.5792 35.8163 48.1148 35.4543 49.3706 34.5881C50.0671 35.9927 50.3002 37.5821 50.0362 39.1275L50.0381 39.1294Z" fill="white"/>
</svg>
