<svg width="60" height="60" viewBox="0 0 60 60" fill="none" xmlns="http://www.w3.org/2000/svg">
<mask id="mask0_38_1151" style="mask-type:luminance" maskUnits="userSpaceOnUse" x="5" y="2" width="50" height="56">
<path d="M28.6811 2.55228L6.88896 15.1305C6.4886 15.3612 6.15609 15.6933 5.9249 16.0934C5.69371 16.4935 5.572 16.9475 5.57202 17.4095V42.5836C5.57202 43.5234 6.07272 44.3919 6.88896 44.8626L28.6827 57.4507C29.0831 57.6812 29.5371 57.8026 29.9991 57.8026C30.4612 57.8026 30.9151 57.6812 31.3155 57.4507L53.1056 44.8626C53.505 44.6311 53.8366 44.2987 54.0672 43.8987C54.2977 43.4987 54.4192 43.0452 54.4195 42.5836V17.4095C54.4195 16.4702 53.9177 15.6012 53.1005 15.1305L31.3135 2.55228C30.912 2.32191 30.4573 2.20068 29.9945 2.20068C29.5316 2.20068 29.0769 2.32191 28.6754 2.55228" fill="white"/>
</mask>
<g mask="url(#mask0_38_1151)">
<path d="M76.4413 12.9948L15.0348 -17.1046L-16.4508 47.1256L44.9542 77.2266L76.4413 12.9948Z" fill="url(#paint0_linear_38_1151)"/>
</g>
<mask id="mask1_38_1151" style="mask-type:luminance" maskUnits="userSpaceOnUse" x="6" y="2" width="48" height="56">
<path d="M6.11206 44.1819C6.32052 44.4524 6.58122 44.6867 6.88795 44.8626L25.5817 55.6604L28.6956 57.4501C29.1612 57.7191 29.6919 57.8329 30.2133 57.7941C30.3871 57.7801 30.5609 57.7475 30.7305 57.6994L53.7145 15.6152C53.5386 15.4238 53.3327 15.2634 53.102 15.1289L38.8329 6.88898L31.2902 2.54917C31.0759 2.42763 30.8463 2.33542 30.6074 2.27502L6.11206 44.1819Z" fill="white"/>
</mask>
<g mask="url(#mask1_38_1151)">
<path d="M-20.4379 21.8973L22.9215 80.582L80.2649 38.2153L36.903 -20.4679L-20.4379 21.8973Z" fill="url(#paint1_linear_38_1151)"/>
</g>
<mask id="mask2_38_1151" style="mask-type:luminance" maskUnits="userSpaceOnUse" x="6" y="2" width="49" height="56">
<path d="M29.7343 2.21503C29.3636 2.25246 29.005 2.36736 28.6816 2.55228L6.95154 15.0943L30.3834 57.7734C30.7093 57.7269 31.03 57.6182 31.3197 57.4506L53.1118 44.8626C53.4408 44.6722 53.7249 44.4129 53.9445 44.1026C54.1641 43.7923 54.3141 43.4382 54.3843 43.0646L30.4972 2.25796C30.3218 2.223 30.1433 2.20533 29.9644 2.2052L29.7472 2.21554" fill="white"/>
</mask>
<g mask="url(#mask2_38_1151)">
<path d="M6.95105 2.2052V57.7745H54.375V2.2052H6.95105Z" fill="url(#paint2_linear_38_1151)"/>
</g>
<defs>
<linearGradient id="paint0_linear_38_1151" x1="45.7197" y1="-2.10252" x2="14.2362" y2="62.1236" gradientUnits="userSpaceOnUse">
<stop offset="0.3" stop-color="#3E863D"/>
<stop offset="0.5" stop-color="#55934F"/>
<stop offset="0.8" stop-color="#5AAD45"/>
</linearGradient>
<linearGradient id="paint1_linear_38_1151" x1="1.50121" y1="51.5761" x2="58.8472" y2="9.20422" gradientUnits="userSpaceOnUse">
<stop offset="0.57" stop-color="#3E863D"/>
<stop offset="0.72" stop-color="#619857"/>
<stop offset="1" stop-color="#76AC64"/>
</linearGradient>
<linearGradient id="paint2_linear_38_1151" x1="6.96708" y1="29.9914" x2="54.3838" y2="29.9914" gradientUnits="userSpaceOnUse">
<stop offset="0.16" stop-color="#6BBF47"/>
<stop offset="0.38" stop-color="#79B461"/>
<stop offset="0.47" stop-color="#75AC64"/>
<stop offset="0.7" stop-color="#659E5A"/>
<stop offset="0.9" stop-color="#3E863D"/>
</linearGradient>
</defs>
</svg>
