<svg width="60" height="60" viewBox="0 0 60 60" fill="none" xmlns="http://www.w3.org/2000/svg">
<path d="M30 56.25C44.4975 56.25 56.25 44.4975 56.25 30C56.25 15.5025 44.4975 3.75 30 3.75C15.5025 3.75 3.75 15.5025 3.75 30C3.75 44.4975 15.5025 56.25 30 56.25Z" fill="#8892BF"/>
<path d="M27.0734 18.75H30.2234L29.3332 23.4829H32.1637C33.716 23.5161 34.8723 23.8629 35.6334 24.5237C36.4094 25.1842 36.6378 26.4401 36.3183 28.2902L34.7889 36.5417H31.5931L33.0539 28.6618C33.206 27.8357 33.1604 27.2494 32.9171 26.9025C32.6737 26.5556 32.1487 26.3822 31.3421 26.3822L28.8082 26.3574L26.9364 36.5417H23.7864L27.0734 18.75Z" fill="white"/>
<path fill-rule="evenodd" clip-rule="evenodd" d="M12.6392 23.483H18.7567C20.5522 23.4993 21.8535 24.0613 22.6601 25.1679C23.4667 26.2747 23.733 27.7862 23.4591 29.7026C23.3527 30.5784 23.1167 31.4372 22.7514 32.2798C22.4014 33.1222 21.9146 33.882 21.2906 34.5594C20.5296 35.4183 19.7154 35.9634 18.8481 36.195C17.9807 36.4263 17.0827 36.5418 16.1545 36.5418H13.4153L12.5479 41.25H9.375L12.6392 23.483ZM13.9403 33.7417L15.3054 26.3327H15.7665C15.934 26.3327 16.1089 26.3242 16.2915 26.3079C17.5091 26.2914 18.5208 26.4153 19.3275 26.6795C20.1491 26.9437 20.4231 27.9433 20.1491 29.6778C19.8146 31.743 19.1599 32.9488 18.1861 33.2957C17.2123 33.6262 15.9947 33.783 14.5338 33.7665H14.2143C14.1229 33.7665 14.0317 33.758 13.9403 33.7417Z" fill="white"/>
<path fill-rule="evenodd" clip-rule="evenodd" d="M45.8184 23.483H39.7008L36.4366 41.25H39.6095L40.4771 36.5418H43.2163C44.1444 36.5418 45.0423 36.4263 45.9097 36.195C46.7773 35.9634 47.5912 35.4183 48.3523 34.5594C48.9763 33.882 49.463 33.1222 49.8131 32.2798C50.1783 31.4372 50.4144 30.5784 50.5207 29.7026C50.7946 27.7862 50.5286 26.2747 49.7218 25.1679C48.9151 24.0613 47.6141 23.4993 45.8184 23.483ZM42.3671 26.3327L41.0021 33.7417C41.0934 33.758 41.1847 33.7665 41.276 33.7665H41.5955C43.0565 33.783 44.274 33.6262 45.2478 33.2957C46.2215 32.9488 46.8763 31.743 47.211 29.6778C47.4849 27.9433 47.211 26.9437 46.3891 26.6795C45.5825 26.4153 44.5708 26.2914 43.3531 26.3079C43.1705 26.3242 42.9958 26.3327 42.8281 26.3327H42.3671Z" fill="white"/>
</svg>
