<svg width="60" height="60" viewBox="0 0 60 60" fill="none" xmlns="http://www.w3.org/2000/svg">
<g clip-path="url(#clip0_38_1169)">
<path d="M59.7546 33.8093C61.8543 17.3723 50.2463 2.34498 33.8393 0.245363C17.4323 -1.85426 2.34498 9.75365 0.245363 26.1607C-1.85426 42.5677 9.75365 57.625 26.1607 59.7546C42.5977 61.8543 57.625 50.2463 59.7546 33.8093Z" fill="#FF6C37"/>
<path d="M40.828 19.2619L28.1703 31.9197L24.601 28.3503C37.0487 15.9025 38.2785 16.9823 40.828 19.2619Z" fill="white"/>
<path d="M28.1704 32.2196C28.0804 32.2196 28.0204 32.1896 27.9604 32.1296L24.361 28.5602C24.2411 28.4403 24.2411 28.2603 24.361 28.1403C37.0188 15.4826 38.3385 16.6824 41.008 19.082C41.068 19.1419 41.098 19.2019 41.098 19.2919C41.098 19.3819 41.068 19.4419 41.008 19.5019L28.3503 32.1296C28.3203 32.1896 28.2303 32.2196 28.1704 32.2196ZM25.0209 28.3503L28.1704 31.4997L40.3782 19.2919C38.1586 17.3123 36.6588 16.7124 25.0209 28.3503Z" fill="#FF6C37"/>
<path d="M31.7997 35.549L28.3503 32.0996L41.008 19.4419C44.3974 22.8613 39.3283 28.4103 31.7997 35.549Z" fill="white"/>
<path d="M31.7997 35.849C31.7097 35.849 31.6497 35.819 31.5897 35.759L28.1403 32.3096C28.0803 32.2496 28.0803 32.1896 28.0803 32.0996C28.0803 32.0096 28.1103 31.9497 28.1703 31.8897L40.828 19.232C40.948 19.112 41.128 19.112 41.2479 19.232C42.0278 19.9518 42.4477 20.9716 42.4177 22.0214C42.3577 25.3508 38.5784 29.5801 32.0396 35.759C31.9496 35.819 31.8596 35.849 31.7997 35.849ZM28.7702 32.0996C30.6899 34.0493 31.4997 34.8291 31.7997 35.1291C36.8387 30.33 41.7279 25.4108 41.7579 22.0214C41.7879 21.2416 41.4879 20.4617 40.978 19.8618L28.7702 32.0996Z" fill="#FF6C37"/>
<path d="M24.661 28.4403L27.2105 30.9898C27.2705 31.0498 27.2705 31.1098 27.2105 31.1698C27.1805 31.1998 27.1805 31.1998 27.1505 31.1998L21.8715 32.3396C21.6015 32.3696 21.3616 32.1896 21.3016 31.9197C21.2716 31.7697 21.3316 31.6197 21.4215 31.5297L24.481 28.4703C24.541 28.4103 24.631 28.3803 24.661 28.4403Z" fill="white"/>
<path d="M21.7815 32.6396C21.3316 32.6396 21.0016 32.2796 21.0016 31.8297C21.0016 31.6198 21.0916 31.4098 21.2416 31.2598L24.3011 28.2004C24.481 28.0504 24.721 28.0504 24.9009 28.2004L27.4505 30.7499C27.6305 30.8999 27.6305 31.1698 27.4505 31.3498C27.3905 31.4098 27.3305 31.4398 27.2405 31.4698L21.9615 32.6096C21.9015 32.6096 21.8415 32.6396 21.7815 32.6396ZM24.571 28.7703L21.6315 31.7097C21.5715 31.7697 21.5416 31.8597 21.6015 31.9497C21.6315 32.0397 21.7215 32.0697 21.8115 32.0397L26.7606 30.9599L24.571 28.7703Z" fill="#FF6C37"/>
<path d="M47.5169 12.2433C45.5972 10.3836 42.5078 10.4436 40.6481 12.3932C38.7884 14.3429 38.8484 17.4023 40.7981 19.262C42.3878 20.7917 44.7874 21.0617 46.677 19.9219L43.2576 16.5025L47.5169 12.2433Z" fill="white"/>
<path d="M44.1575 20.9116C41.308 20.9116 38.9984 18.6021 38.9984 15.7526C38.9984 12.9031 41.308 10.5935 44.1575 10.5935C45.4772 10.5935 46.767 11.1034 47.7268 12.0332C47.7868 12.0932 47.8168 12.1532 47.8168 12.2432C47.8168 12.3332 47.7868 12.3932 47.7268 12.4532L43.6776 16.5024L46.857 19.6819C46.977 19.8018 46.977 19.9818 46.857 20.1018C46.827 20.1318 46.827 20.1318 46.797 20.1618C46.0171 20.6417 45.0873 20.9116 44.1575 20.9116ZM44.1575 11.2234C41.6379 11.2234 39.5983 13.263 39.6283 15.7826C39.6283 18.3021 41.6679 20.3417 44.1875 20.3118C44.8774 20.3118 45.5672 20.1618 46.1971 19.8318L43.0477 16.7124C42.9877 16.6524 42.9577 16.5924 42.9577 16.5024C42.9577 16.4125 42.9877 16.3525 43.0477 16.2925L47.067 12.2732C46.2571 11.5833 45.2373 11.2234 44.1575 11.2234Z" fill="#FF6C37"/>
<path d="M47.6068 12.3332L47.5469 12.2732L43.2576 16.5024L46.647 19.8918C46.977 19.6819 47.3069 19.4419 47.5769 19.1719C49.4965 17.2823 49.4965 14.2228 47.6068 12.3332Z" fill="white"/>
<path d="M46.677 20.2217C46.587 20.2217 46.527 20.1918 46.467 20.1318L43.0476 16.7124C42.9876 16.6524 42.9576 16.5924 42.9576 16.5024C42.9576 16.4124 42.9876 16.3524 43.0476 16.2925L47.3069 12.0332C47.4268 11.9132 47.6068 11.9132 47.7268 12.0332L47.8168 12.0932C49.8264 14.1028 49.8264 17.3423 47.8468 19.3819C47.5468 19.6818 47.2169 19.9518 46.8569 20.1618C46.767 20.1918 46.707 20.2217 46.677 20.2217ZM43.6775 16.5024L46.707 19.5319C46.9469 19.3819 47.1869 19.1719 47.3668 18.992C49.0765 17.2823 49.1665 14.4928 47.5168 12.6931L43.6775 16.5024Z" fill="#FF6C37"/>
<path d="M41.338 19.8019C40.6181 19.082 39.4483 19.082 38.7284 19.8019L27.4205 31.1098L29.3101 32.9995L41.278 22.5014C42.0578 21.8415 42.1178 20.6717 41.4579 19.8918C41.398 19.8619 41.368 19.8319 41.338 19.8019Z" fill="white"/>
<path d="M29.2801 33.2995C29.1901 33.2995 29.1301 33.2695 29.0702 33.2095L27.1805 31.3198C27.0605 31.1998 27.0605 31.0199 27.1805 30.8999L38.4885 19.5919C39.3283 18.7521 40.6781 18.7521 41.5179 19.5919C42.3578 20.4318 42.3578 21.7815 41.5179 22.6214C41.4879 22.6514 41.4579 22.6814 41.4279 22.7114L29.4601 33.2095C29.4301 33.2695 29.3701 33.2995 29.2801 33.2995ZM27.8404 31.1098L29.3101 32.5796L41.068 22.2614C41.7279 21.7215 41.7879 20.7317 41.248 20.0718C40.7081 19.412 39.7182 19.352 39.0584 19.8919C39.0284 19.9219 38.9984 19.9519 38.9384 19.9819L27.8404 31.1098Z" fill="#FF6C37"/>
<path d="M18.752 43.9775C18.6321 44.0375 18.5721 44.1575 18.6021 44.2774L19.112 46.4371C19.232 46.737 19.052 47.0969 18.722 47.1869C18.4821 47.2769 18.2121 47.1869 18.0622 47.007L14.7628 43.7375L25.5308 32.9695L29.2501 33.0295L31.7697 35.549C31.1698 36.0589 27.5405 39.5683 18.752 43.9775Z" fill="white"/>
<path d="M18.512 47.4869C18.2721 47.4869 18.0321 47.3969 17.8822 47.2169L14.6127 43.9475C14.5528 43.8875 14.5228 43.8275 14.5228 43.7376C14.5228 43.6476 14.5528 43.5876 14.6127 43.5276L25.3808 32.7595C25.4408 32.6995 25.5308 32.6696 25.5908 32.6696L29.3101 32.7295C29.4001 32.7295 29.4601 32.7595 29.5201 32.8195L32.0396 35.3391C32.0996 35.3991 32.1296 35.489 32.1296 35.579C32.1296 35.669 32.0996 35.729 32.0096 35.789L31.7997 35.969C28.6202 38.7585 24.301 41.548 18.932 44.2175L19.4419 46.3471C19.5319 46.737 19.3519 47.1569 18.992 47.3669C18.812 47.4569 18.662 47.4869 18.512 47.4869ZM15.2126 43.7376L18.3021 46.797C18.3921 46.947 18.572 47.007 18.722 46.917C18.872 46.827 18.932 46.647 18.842 46.4971L18.3321 44.3375C18.2721 44.0675 18.3921 43.8275 18.632 43.7076C23.9411 41.038 28.2303 38.2785 31.3797 35.549L29.1601 33.3294L25.7107 33.2694L15.2126 43.7376Z" fill="#FF6C37"/>
<path d="M12.2132 46.3171L14.7927 43.7375L18.632 47.5769L12.5131 47.1569C12.2432 47.1269 12.0632 46.887 12.0932 46.617C12.0932 46.4971 12.1232 46.3771 12.2132 46.3171Z" fill="white"/>
<path d="M18.6321 47.8468L12.4832 47.4269C12.0332 47.3969 11.7333 47.0069 11.7633 46.557C11.7933 46.3771 11.8533 46.1971 12.0032 46.0771L14.5828 43.4976C14.7028 43.3776 14.8827 43.3776 15.0027 43.4976L18.842 47.3369C18.932 47.4269 18.962 47.5468 18.902 47.6668C18.842 47.7868 18.752 47.8468 18.6321 47.8468ZM14.7927 44.1575L12.4232 46.527C12.3332 46.587 12.3332 46.737 12.4232 46.797C12.4532 46.827 12.4832 46.857 12.5432 46.857L17.8522 47.2169L14.7927 44.1575Z" fill="#FF6C37"/>
<path d="M24.481 34.3492C24.301 34.3492 24.181 34.1992 24.181 34.0493C24.181 33.9593 24.211 33.8993 24.271 33.8393L27.1805 30.9298C27.3005 30.8098 27.4804 30.8098 27.6004 30.9298L29.4901 32.8195C29.5801 32.9095 29.6101 32.9995 29.5801 33.1194C29.5501 33.2094 29.4601 33.2994 29.3401 33.3294L24.541 34.3492C24.511 34.3492 24.481 34.3492 24.481 34.3492ZM27.3905 31.5597L25.4108 33.5394L28.6502 32.8495L27.3905 31.5597Z" fill="#FF6C37"/>
<path d="M29.2502 33.0295L25.9507 33.7493C25.7108 33.8093 25.4708 33.6594 25.4108 33.4194C25.3808 33.2694 25.4108 33.1194 25.5308 32.9995L27.3605 31.1698L29.2502 33.0295Z" fill="white"/>
<path d="M25.8907 34.0493C25.4708 34.0493 25.1409 33.7193 25.1409 33.2994C25.1409 33.0894 25.2309 32.9095 25.3508 32.7595L27.1805 30.9298C27.3005 30.8098 27.4804 30.8098 27.6004 30.9298L29.4901 32.8195C29.5801 32.9095 29.6101 32.9995 29.5801 33.1194C29.5501 33.2094 29.4601 33.2994 29.3401 33.3294L26.0407 34.0493C25.9807 34.0493 25.9207 34.0493 25.8907 34.0493ZM27.3905 31.5597L25.7708 33.1794C25.7108 33.2394 25.7108 33.2994 25.7408 33.3594C25.7708 33.4194 25.8307 33.4494 25.9207 33.4494L28.6802 32.8495L27.3905 31.5597Z" fill="#FF6C37"/>
<path d="M47.6369 15.2127C47.5769 15.0328 47.3669 14.9428 47.1869 15.0028C47.007 15.0628 46.917 15.2727 46.977 15.4527C46.977 15.4827 47.007 15.5127 47.007 15.5427C47.1869 15.9026 47.1269 16.3525 46.887 16.6825C46.767 16.8324 46.797 17.0424 46.917 17.1624C47.067 17.2824 47.2769 17.2524 47.3969 17.1024C47.8468 16.5325 47.9368 15.8126 47.6369 15.2127Z" fill="#FF6C37"/>
</g>
<defs>
<clipPath id="clip0_38_1169">
<rect width="60" height="60" fill="white"/>
</clipPath>
</defs>
</svg>
