<svg width="66" height="60" viewBox="0 0 66 60" fill="none" xmlns="http://www.w3.org/2000/svg">
<path d="M66 30.0069C66 25.5436 60.5247 21.3138 52.13 18.6908C54.0673 9.95651 53.2063 3.00755 49.4126 0.782788C48.5381 0.260929 47.5157 0.0137331 46.3991 0.0137331V3.07622C47.0179 3.07622 47.5157 3.19982 47.9327 3.43328C49.7623 4.50446 50.5561 8.5832 49.9372 13.8293C49.7892 15.1202 49.5471 16.4797 49.2511 17.8668C46.6143 17.2076 43.7354 16.6995 40.7085 16.3699C38.8924 13.8293 37.009 11.5221 35.1121 9.50332C39.4978 5.34218 43.6143 3.06249 46.4126 3.06249V0C42.713 0 37.87 2.69169 32.9731 7.36095C28.0762 2.71916 23.2332 0.0549325 19.5336 0.0549325V3.11742C22.3184 3.11742 26.4484 5.38338 30.8341 9.51705C28.9507 11.5358 27.0673 13.8293 25.278 16.3699C22.2377 16.6995 19.3587 17.2076 16.722 17.8805C16.4126 16.5072 16.1839 15.1751 16.0224 13.8979C15.3901 8.65187 16.1704 4.57313 17.9865 3.48821C18.3901 3.24102 18.9148 3.13115 19.5336 3.13115V0.0686656C18.4036 0.0686656 17.3812 0.315862 16.4933 0.83772C12.713 3.06249 11.8655 9.99771 13.8161 18.7045C5.44843 21.3413 0 25.5573 0 30.0069C0 34.4701 5.47534 38.6999 13.87 41.323C11.9327 50.0572 12.7937 57.0062 16.5874 59.2309C17.4619 59.7528 18.4843 60 19.6143 60C23.3139 60 28.1569 57.3083 33.0538 52.639C37.9507 57.2808 42.7937 59.9451 46.4933 59.9451C47.6233 59.9451 48.6457 59.6979 49.5336 59.176C53.3139 56.9512 54.1614 50.016 52.2108 41.3092C60.5516 38.6862 66 34.4564 66 30.0069ZM48.4843 20.8469C47.9865 22.6184 47.3677 24.445 46.6682 26.2715C46.1166 25.1728 45.5381 24.0742 44.9058 22.9755C44.287 21.8769 43.6278 20.8057 42.9686 19.762C44.8789 20.0504 46.722 20.4074 48.4843 20.8469ZM42.3229 35.4726C41.2735 37.3266 40.1973 39.0845 39.0807 40.7187C37.0762 40.8972 35.0448 40.9934 33 40.9934C30.9686 40.9934 28.9372 40.8972 26.9462 40.7324C25.8296 39.0982 24.7399 37.3541 23.6906 35.5138C22.6682 33.7148 21.7399 31.8883 20.8924 30.0481C21.7265 28.2078 22.6682 26.3676 23.6771 24.5686C24.7265 22.7146 25.8027 20.9567 26.9193 19.3225C28.9238 19.144 30.9552 19.0478 33 19.0478C35.0314 19.0478 37.0628 19.144 39.0538 19.3088C40.1704 20.943 41.2601 22.6871 42.3094 24.5274C43.3318 26.3264 44.2601 28.1529 45.1076 29.9931C44.2601 31.8334 43.3318 33.6736 42.3229 35.4726ZM46.6682 33.6873C47.3946 35.5276 48.0135 37.3678 48.5247 39.1531C46.7623 39.5926 44.9058 39.9634 42.9821 40.2518C43.6413 39.1943 44.3004 38.1094 44.9193 36.997C45.5381 35.8984 46.1166 34.786 46.6682 33.6873ZM33.0269 48.3406C31.7758 47.0222 30.5247 45.5528 29.287 43.946C30.4978 44.0009 31.7354 44.0421 32.9865 44.0421C34.2511 44.0421 35.5022 44.0146 36.7265 43.946C35.5157 45.5528 34.2646 47.0222 33.0269 48.3406ZM23.0179 40.2518C21.1076 39.9634 19.2646 39.6063 17.5022 39.1669C18 37.3953 18.6188 35.5688 19.3184 33.7423C19.87 34.8409 20.4484 35.9396 21.0807 37.0382C21.713 38.1369 22.3587 39.2081 23.0179 40.2518ZM32.9596 11.6732C34.2108 12.9915 35.4619 14.461 36.6996 16.0678C35.4888 16.0128 34.2511 15.9716 33 15.9716C31.7354 15.9716 30.4843 15.9991 29.2601 16.0678C30.4708 14.461 31.722 12.9915 32.9596 11.6732ZM23.0045 19.762C22.3453 20.8194 21.6861 21.9043 21.0673 23.0167C20.4484 24.1154 19.87 25.214 19.3184 26.3127C18.5919 24.4724 17.9731 22.6322 17.4619 20.8469C19.2242 20.4211 21.0807 20.0504 23.0045 19.762ZM10.8296 36.9558C6.06726 34.8821 2.98655 32.163 2.98655 30.0069C2.98655 27.8508 6.06726 25.1179 10.8296 23.0579C11.9865 22.5498 13.2511 22.0966 14.5561 21.6709C15.3229 24.3626 16.3318 27.1641 17.583 30.0343C16.3453 32.8908 15.3498 35.6786 14.5964 38.3566C13.2646 37.9309 12 37.464 10.8296 36.9558ZM18.0673 56.5805C16.2377 55.5093 15.4439 51.4305 16.0628 46.1845C16.2108 44.8936 16.4529 43.534 16.7489 42.1469C19.3856 42.8061 22.2646 43.3143 25.2915 43.6439C27.1076 46.1845 28.991 48.4916 30.8879 50.5104C26.5022 54.6716 22.3856 56.9512 19.5874 56.9512C18.9821 56.9375 18.4708 56.8139 18.0673 56.5805ZM49.9776 46.1158C50.6099 51.3619 49.8296 55.4406 48.0135 56.5255C47.6099 56.7727 47.0852 56.8826 46.4664 56.8826C43.6816 56.8826 39.5516 54.6166 35.1659 50.4829C37.0493 48.4642 38.9327 46.1707 40.722 43.6301C43.7623 43.3005 46.6413 42.7924 49.278 42.1195C49.5874 43.5065 49.8296 44.8386 49.9776 46.1158ZM55.157 36.9558C54 37.464 52.7354 37.9171 51.4305 38.3429C50.6637 35.6512 49.6547 32.8496 48.4036 29.9794C49.6413 27.1229 50.6368 24.3351 51.3901 21.6571C52.722 22.0829 53.9865 22.5498 55.1704 23.0579C59.9327 25.1316 63.0135 27.8508 63.0135 30.0069C63 32.163 59.9193 34.8959 55.157 36.9558Z" fill="#61DAFB"/>
<path d="M32.9866 36.2828C36.382 36.2828 39.1346 33.4729 39.1346 30.0067C39.1346 26.5406 36.382 23.7307 32.9866 23.7307C29.5912 23.7307 26.8386 26.5406 26.8386 30.0067C26.8386 33.4729 29.5912 36.2828 32.9866 36.2828Z" fill="#61DAFB"/>
</svg>
