<svg width="60" height="60" viewBox="0 0 60 60" fill="none" xmlns="http://www.w3.org/2000/svg">
<g clip-path="url(#clip0_38_920)">
<path d="M26.4383 59.9616C20.822 59.5568 15.271 58.1431 11.8666 56.2505C9.9275 55.1726 8.45015 53.8478 7.87043 52.6671L7.52551 51.9645V29.9291V7.89356L7.79844 7.33938C9.01813 4.8631 12.9107 2.63071 18.3445 1.29125C20.1891 0.836538 22.8519 0.383713 25.0243 0.155371C27.2425 -0.0778581 33.1222 -0.042374 35.335 0.21794C41.216 0.908883 46.2205 2.45573 49.3045 4.53593C50.4938 5.33813 51.7142 6.62173 52.1277 7.50528L52.4821 8.26281L52.4518 30.2316L52.4215 52.2006L52.1369 52.7787C51.9804 53.0966 51.5077 53.7221 51.0865 54.1686C48.5221 56.887 43.0214 58.898 35.8064 59.7548C34.3358 59.9295 27.9471 60.0704 26.4383 59.9616ZM36.7883 41.0801C36.7667 41.0238 35.9272 40.2759 34.9226 39.4179C33.918 38.56 33.0528 37.8178 32.9999 37.7685C32.947 37.7192 33.1327 37.5447 33.4124 37.3808C33.6921 37.2168 34.228 36.7606 34.6034 36.367C35.7009 35.2161 36.2188 33.7945 36.2188 31.9323C36.2188 30.099 35.6603 28.6199 34.5416 27.4908C33.4142 26.3527 32.1197 25.8636 30.2346 25.8636C27.3288 25.8636 25.0972 27.5592 24.3849 30.308C24.1398 31.2535 24.1412 33.1641 24.3874 34.0025C25.0298 36.1894 26.7792 37.7776 28.9565 38.1506C29.6933 38.2768 29.7931 38.3312 30.2955 38.8804C30.594 39.2068 31.2066 39.8583 31.6568 40.3281L32.4754 41.1825H34.6515C35.8484 41.1825 36.8099 41.1364 36.7883 41.0801ZM29.3256 34.9872C28.8017 34.714 28.6036 34.502 28.3049 33.8947C28.0742 33.4256 28.0347 33.1588 28.0321 32.0501C28.0296 30.9236 28.0654 30.6802 28.3063 30.191C28.7005 29.3905 29.2436 29.0116 30.0839 28.9508C31.2535 28.8659 31.9286 29.44 32.2825 30.8195C32.7163 32.5108 32.2392 34.3089 31.1984 34.9057C30.6523 35.2188 29.8378 35.2542 29.3256 34.9872ZM19.6801 38.1266C21.9616 37.6939 23.2567 36.3671 23.2567 34.4624C23.2567 32.7726 22.4206 31.788 20.1096 30.7564C18.7867 30.1658 18.3075 29.7951 18.3075 29.362C18.3075 29.003 18.7623 28.6097 19.2917 28.5108C19.8085 28.4143 21.1794 28.6524 21.989 28.9794L22.6676 29.2536V27.7515V26.2494L21.931 26.086C21.4759 25.985 20.5194 25.9244 19.427 25.9275C17.8796 25.9275 17.5766 25.9652 16.9943 26.1965C15.2934 26.8717 14.4862 28.022 14.4991 29.7523C14.5112 31.3722 15.3657 32.3826 17.4925 33.2915C18.7473 33.8279 19.2503 34.2363 19.2503 34.7189C19.2503 35.7445 17.5415 35.8707 15.7322 34.9787C15.2368 34.7345 14.7916 34.5147 14.743 34.4904C14.6944 34.466 14.6546 35.1677 14.6546 36.0496C14.6546 37.646 14.6563 37.6537 14.9454 37.7637C16.0338 38.1775 18.4393 38.3619 19.6801 38.1266ZM45.7636 36.6457V35.2906H43.7015H41.6393V30.636V25.9815H39.8128H37.9864V31.9912V38.0009H41.8749H45.7636V36.6457ZM33.0372 12.8986C36.6667 12.6468 39.3874 12.1715 41.7816 11.3711C44.1667 10.5736 45.5756 9.60861 45.8908 8.55672C46.0122 8.15138 46.0035 7.99763 45.8338 7.5532C45.0729 5.56077 40.8222 4.02997 34.3268 3.40931C31.5483 3.14377 26.4953 3.22985 23.8461 3.58771C19.8037 4.13388 16.5232 5.14837 15.0645 6.30337C12.1138 8.63994 15.2342 11.2099 22.4908 12.4195C25.6373 12.9439 29.7137 13.1291 33.0372 12.8986Z" fill="#00BCF2"/>
</g>
<defs>
<clipPath id="clip0_38_920">
<rect width="60" height="60" fill="white"/>
</clipPath>
</defs>
</svg>
